<svg width="24" height="24" viewBox="0 0 24 24" fill="none" xmlns="http://www.w3.org/2000/svg"><path fill-rule="evenodd" clip-rule="evenodd" d="M14.1 4.5H9.9c-1.145 0-1.913.001-2.505.05-.574.046-.849.13-1.03.222a2.5 2.5 0 0 0-1.093 1.093c-.092.181-.176.456-.222 1.03C5 7.487 5 8.255 5 9.4v5.2c0 1.145.001 1.913.05 2.505.046.574.13.849.222 1.03a2.5 2.5 0 0 0 1.093 1.092c.181.093.456.177 1.03.224.592.048 1.36.049 2.505.049h4.2c1.145 0 1.913-.001 2.505-.05.574-.046.849-.13 1.03-.223a2.5 2.5 0 0 0 1.092-1.092c.093-.181.177-.456.224-1.03.048-.592.049-1.36.049-2.505V9.4c0-1.145-.001-1.913-.05-2.505-.046-.574-.13-.849-.223-1.03a2.5 2.5 0 0 0-1.092-1.093c-.181-.092-.456-.176-1.03-.222-.592-.049-1.36-.05-2.505-.05zm-10.164.684C3.5 6.04 3.5 7.16 3.5 9.4v5.2c0 2.24 0 3.36.436 4.216a4 4 0 0 0 1.748 1.748C6.54 21 7.66 21 9.9 21h4.2c2.24 0 3.36 0 4.216-.436a4 4 0 0 0 1.748-1.748c.436-.856.436-1.976.436-4.216V9.4c0-2.24 0-3.36-.436-4.216a4 4 0 0 0-1.748-1.748C17.46 3 16.34 3 14.1 3H9.9c-2.24 0-3.36 0-4.216.436a4 4 0 0 0-1.748 1.748zM15.5 16.75a.75.75 0 0 1-1.5 0v-9.5a.75.75 0 0 1 1.5 0v9.5zm-6.25.75a.75.75 0 0 0 .75-.75v-9.5a.75.75 0 0 0-1.5 0v9.5c0 .414.336.75.75.75z" fill="rgba(0, 0, 0, 0.25)"></path></svg>