<svg width="20" height="20" viewBox="0 0 20 20" fill="none" xmlns="http://www.w3.org/2000/svg"><path fill-rule="evenodd" clip-rule="evenodd" d="M8.485 2a.75.75 0 0 0-.707 1H5.266A2 2 0 0 0 3.28 4.752l-.14 1.124A1 1 0 0 0 4 6.992l.329 8.13A3 3 0 0 0 7.328 18h5.346a3 3 0 0 0 2.997-2.879L16 6.991a1 1 0 0 0 .86-1.115l-.141-1.124A2 2 0 0 0 14.734 3h-2.512a.75.75 0 0 0-.707-1h-3.03zm6.013 5H5.503l.326 8.06a1.5 1.5 0 0 0 1.499 1.44h5.346a1.5 1.5 0 0 0 1.498-1.44L14.498 7zM4.983 5.5H15.3l-.07-.562a.5.5 0 0 0-.497-.438H5.265a.5.5 0 0 0-.496.438L4.7 5.5h.284zM7.95 7.75a.75.75 0 0 1 .779.72l.252 6.5a.75.75 0 1 1-1.499.06l-.252-6.5a.75.75 0 0 1 .72-.78zm4.098 0a.75.75 0 0 1 .72.78l-.252 6.5a.75.75 0 0 1-1.5-.06l.253-6.5a.75.75 0 0 1 .779-.72z" fill="#CCC"></path></svg>