<svg class="Header__StyledLogo-py9vkp-1 boHCLO" width="172" height="41" viewBox="0 0 172 41" fill="none" xmlns="http://www.w3.org/2000/svg"><title>Columns</title><path d="M1.5 19c0-3.796.003-6.509.253-8.592.245-2.048.712-3.288 1.502-4.229a7.5 7.5 0 0 1 .924-.924c.941-.79 2.18-1.257 4.23-1.502C10.49 3.503 13.203 3.5 17 3.5c3.796 0 6.509.003 8.592.253 2.048.245 3.288.712 4.229 1.502.334.28.644.59.924.924.79.941 1.257 2.18 1.503 4.23.25 2.082.252 4.795.252 8.591v2c0 3.796-.002 6.509-.252 8.592-.246 2.048-.713 3.288-1.503 4.229-.28.334-.59.644-.924.924-.941.79-2.18 1.257-4.23 1.503-2.082.25-4.795.252-8.591.252-3.796 0-6.509-.002-8.592-.252-2.048-.246-3.288-.713-4.229-1.503a7.494 7.494 0 0 1-.924-.924c-.79-.941-1.257-2.18-1.502-4.23C1.503 27.51 1.5 24.797 1.5 21v-2z" stroke="#2387FB" stroke-width="3"></path><rect x="11" y="9" width="2" height="22" rx="1" fill="#2387FB"></rect><rect x="21" y="9" width="2" height="22" rx="1" fill="#2387FB"></rect><path d="M66.72 15.034h3.23c-.181-1.292-.567-2.425-1.156-3.4a8.333 8.333 0 0 0-2.21-2.482 9.688 9.688 0 0 0-3.026-1.496 12.479 12.479 0 0 0-3.604-.51c-1.859 0-3.513.34-4.964 1.02a10.251 10.251 0 0 0-3.604 2.72c-.952 1.156-1.677 2.516-2.176 4.08-.499 1.541-.748 3.196-.748 4.964 0 1.768.227 3.423.68 4.964.476 1.541 1.179 2.879 2.108 4.012.93 1.133 2.097 2.029 3.502 2.686 1.405.635 3.049.952 4.93.952 3.105 0 5.553-.85 7.344-2.55 1.79-1.7 2.845-4.08 3.162-7.14h-3.23a9.263 9.263 0 0 1-.612 2.788 6.78 6.78 0 0 1-1.428 2.244 6.533 6.533 0 0 1-2.142 1.462c-.816.34-1.757.51-2.822.51-1.45 0-2.697-.272-3.74-.816a7.538 7.538 0 0 1-2.584-2.176c-.657-.93-1.145-2.006-1.462-3.23a15.935 15.935 0 0 1-.476-3.944c0-1.27.159-2.493.476-3.672.317-1.179.805-2.221 1.462-3.128a7.483 7.483 0 0 1 2.55-2.21c1.043-.544 2.29-.816 3.74-.816 1.7 0 3.162.43 4.386 1.292 1.247.861 2.051 2.153 2.414 3.876zm7.401 8.194c0-1.065.136-2.006.408-2.822.295-.839.691-1.541 1.19-2.108a5.04 5.04 0 0 1 1.734-1.292 5.33 5.33 0 0 1 2.142-.442c.748 0 1.45.147 2.108.442.68.295 1.27.725 1.768 1.292.499.567.884 1.27 1.156 2.108.295.816.442 1.757.442 2.822 0 1.065-.147 2.017-.442 2.856-.272.816-.657 1.507-1.156 2.074a5.15 5.15 0 0 1-1.768 1.258 5.093 5.093 0 0 1-2.108.442 5.33 5.33 0 0 1-2.142-.442 5.242 5.242 0 0 1-1.734-1.258c-.499-.567-.895-1.258-1.19-2.074-.272-.839-.408-1.79-.408-2.856zm-3.06 0c0 1.292.181 2.493.544 3.604a8.404 8.404 0 0 0 1.632 2.924c.725.816 1.62 1.462 2.686 1.938 1.065.453 2.29.68 3.672.68 1.405 0 2.63-.227 3.672-.68 1.065-.476 1.96-1.122 2.686-1.938a8.404 8.404 0 0 0 1.632-2.924c.363-1.11.544-2.312.544-3.604 0-1.292-.181-2.493-.544-3.604-.363-1.133-.907-2.108-1.632-2.924a7.59 7.59 0 0 0-2.686-1.972c-1.043-.476-2.267-.714-3.672-.714-1.383 0-2.607.238-3.672.714a7.59 7.59 0 0 0-2.686 1.972c-.725.816-1.27 1.79-1.632 2.924-.363 1.11-.544 2.312-.544 3.604zM90.006 7.724V32h2.89V7.724h-2.89zM110.227 32V14.422h-2.89v9.928c0 .793-.114 1.53-.34 2.21a4.804 4.804 0 0 1-.952 1.734 4.282 4.282 0 0 1-1.632 1.156c-.635.272-1.394.408-2.278.408-1.111 0-1.984-.317-2.618-.952-.635-.635-.952-1.496-.952-2.584v-11.9h-2.89v11.56c0 .952.09 1.825.272 2.618.204.77.544 1.44 1.02 2.006.476.567 1.099 1.009 1.87 1.326.77.295 1.734.442 2.89.442 1.292 0 2.414-.25 3.366-.748.952-.521 1.734-1.326 2.346-2.414h.068V32h2.72zm2.64-17.578V32h2.89V21.052c0-.34.08-.76.238-1.258.182-.521.454-1.02.816-1.496a5.206 5.206 0 0 1 1.462-1.224c.612-.34 1.338-.51 2.176-.51.658 0 1.19.102 1.598.306.431.181.771.453 1.02.816.25.34.42.748.51 1.224.114.476.17.997.17 1.564V32h2.89V21.052c0-1.36.408-2.448 1.224-3.264.816-.816 1.938-1.224 3.366-1.224.703 0 1.27.102 1.7.306.454.204.805.487 1.054.85.25.34.42.748.51 1.224.091.476.136.986.136 1.53V32h2.89V19.114c0-.907-.147-1.677-.442-2.312a3.851 3.851 0 0 0-1.19-1.598c-.498-.408-1.11-.703-1.836-.884-.702-.204-1.496-.306-2.38-.306a6.67 6.67 0 0 0-3.196.782 6.178 6.178 0 0 0-2.312 2.21c-.362-1.088-.986-1.859-1.87-2.312-.884-.453-1.87-.68-2.958-.68-2.47 0-4.363.997-5.678 2.992h-.068v-2.584h-2.72zm27.287 0V32h2.89v-9.928c0-.793.102-1.519.306-2.176.226-.68.555-1.27.986-1.768.43-.499.963-.884 1.598-1.156.657-.272 1.428-.408 2.312-.408 1.11 0 1.983.317 2.618.952.634.635.952 1.496.952 2.584V32h2.89V20.44c0-.952-.102-1.813-.306-2.584-.182-.793-.51-1.473-.986-2.04s-1.1-1.009-1.87-1.326c-.771-.317-1.734-.476-2.89-.476-2.607 0-4.511 1.065-5.712 3.196h-.068v-2.788h-2.72zm18.96 12.036h-2.89c.045 1.088.272 2.017.68 2.788a5.31 5.31 0 0 0 1.632 1.836c.68.453 1.462.782 2.346.986.884.204 1.813.306 2.788.306.884 0 1.768-.09 2.652-.272.907-.159 1.711-.453 2.414-.884a4.988 4.988 0 0 0 1.734-1.7c.453-.703.68-1.587.68-2.652 0-.839-.17-1.541-.51-2.108a4.003 4.003 0 0 0-1.292-1.394 6.326 6.326 0 0 0-1.836-.918c-.68-.227-1.383-.42-2.108-.578-.68-.159-1.36-.306-2.04-.442-.68-.159-1.292-.34-1.836-.544-.544-.227-.997-.499-1.36-.816a1.71 1.71 0 0 1-.51-1.258c0-.453.113-.816.34-1.088a2.21 2.21 0 0 1 .884-.68 4.06 4.06 0 0 1 1.19-.374 8.928 8.928 0 0 1 1.326-.102c.476 0 .941.057 1.394.17a4 4 0 0 1 1.292.476c.385.227.703.533.952.918.249.363.397.827.442 1.394h2.89c-.068-1.065-.295-1.95-.68-2.652a4.363 4.363 0 0 0-1.564-1.7c-.635-.43-1.371-.725-2.21-.884a13.046 13.046 0 0 0-2.754-.272 9.39 9.39 0 0 0-2.346.306 6.705 6.705 0 0 0-2.108.884 4.927 4.927 0 0 0-1.53 1.53c-.385.635-.578 1.394-.578 2.278 0 1.133.283 2.017.85 2.652a5.942 5.942 0 0 0 2.108 1.496c.861.34 1.791.612 2.788.816.997.181 1.915.397 2.754.646.861.227 1.575.533 2.142.918s.85.952.85 1.7c0 .544-.136.997-.408 1.36-.272.34-.623.6-1.054.782a4.993 4.993 0 0 1-1.36.374c-.499.068-.975.102-1.428.102a8.828 8.828 0 0 1-1.734-.17 5.343 5.343 0 0 1-1.496-.544 3.339 3.339 0 0 1-1.054-1.054c-.272-.453-.419-.997-.442-1.632z" fill="#000"></path></svg>