<svg class="AboutHeader__Icon-sc-1jd5ime-3 iXkJQb" width="34" height="36" viewBox="0 0 34 36" xmlns="http://www.w3.org/2000/svg"><title>Columns Logo</title><g transform="translate(1 1)" fill="none" fill-rule="evenodd"><path d="M.5 16c0-3.796.003-6.509.253-8.592.245-2.048.712-3.288 1.502-4.229a7.5 7.5 0 0 1 .924-.924C4.12 1.465 5.36.998 7.41.753 9.49.503 12.203.5 16 .5c3.796 0 6.509.003 8.592.253 2.048.245 3.288.712 4.229 1.502.334.28.644.59.924.924.79.941 1.257 2.18 1.502 4.23.25 2.082.253 4.795.253 8.591v2c0 3.796-.003 6.509-.253 8.592-.245 2.048-.712 3.288-1.502 4.229-.28.334-.59.644-.924.924-.941.79-2.18 1.257-4.23 1.503-2.082.25-4.795.252-8.591.252-3.796 0-6.509-.002-8.592-.252-2.048-.246-3.288-.713-4.229-1.503a7.494 7.494 0 0 1-.924-.924c-.79-.941-1.257-2.18-1.502-4.23C.503 24.51.5 21.797.5 18v-2z" stroke="#2387FB" stroke-width="3"></path><rect fill="#2387FB" fill-rule="nonzero" x="10" y="6" width="2" height="22" rx="1"></rect><rect fill="#2387FB" fill-rule="nonzero" x="20" y="6" width="2" height="22" rx="1"></rect></g></svg>