<svg width="24" height="24" viewBox="0 0 24 24" fill="none" xmlns="http://www.w3.org/2000/svg"><path d="M11.083 3.2c.342-.82 1.505-.82 1.847 0l1.849 4.446a1 1 0 0 0 .843.613l4.8.384c.886.072 1.246 1.178.57 1.757l-3.656 3.132a1 1 0 0 0-.323.991l1.118 4.684c.206.865-.735 1.549-1.494 1.085l-4.11-2.51a1 1 0 0 0-1.042 0l-4.109 2.51c-.759.464-1.7-.22-1.494-1.085L7 14.523a1 1 0 0 0-.323-.991L3.021 10.4c-.676-.579-.316-1.685.57-1.757l4.8-.384a1 1 0 0 0 .843-.613l1.85-4.446z" fill="#FED330"></path></svg>